<?xml version="1.0" encoding="utf-8"?>
<!-- Generator: Adobe Illustrator 27.2.0, SVG Export Plug-In . SVG Version: 6.00 Build 0)  -->
<svg version="1.1" id="Layer_1" xmlns="http://www.w3.org/2000/svg" xmlns:xlink="http://www.w3.org/1999/xlink" x="0px" y="0px"
	 viewBox="0 0 128 128" style="enable-background:new 0 0 128 128;" xml:space="preserve">
<style type="text/css">
	.st0{fill:#FFFFFF;}
</style>
<g id="_x38_">
	<path class="st0" d="M121.8,76.7c-5.9,26.3-28.9,44.6-55.8,44.6c-25.8,0-48-16.8-55-41.3L4.1,91.1L0,88.6L11.4,70L30,81.4l-2.5,4.1
		l-11.9-7.3c6.3,22.3,27.1,38.2,50.4,38.2c24.3,0,45.8-17.2,51.1-40.8L121.8,76.7z M128,37.9l-4.2-2.4l-5.4,9.7
		C110.5,22.4,88.8,6.8,64.3,6.8c-25.8,0-48.5,17.3-55.2,42.2l4.7,1.3c6.2-22.7,27-38.6,50.6-38.6c22.7,0,42.8,14.7,49.8,36l-11-6.1
		l-2.3,4.2l17.6,9.7L128,37.9z M30.5,68.3c0.1,2.5,0.6,4.4,1.5,6c1.7,2.9,4.7,4.3,9.1,4.3c3.5,0,6.2-1,8-3c1.8-2,2.7-4.3,2.7-6.9
		c0-2.5-0.8-4.4-2.3-5.9c-1-1-1.8-1.4-2.4-1.4c0.7-0.3,1.4-0.8,2.1-1.6c1.1-1.2,1.6-2.8,1.6-4.6c0-2.6-0.9-4.6-2.7-6.1
		c-1.8-1.5-4.2-2.3-7.1-2.3c-1.6,0-2.9,0.2-4,0.6c-1.1,0.4-2,0.9-2.8,1.7c-1.1,1-1.8,2.1-2.3,3.3c-0.5,1.4-0.7,2.8-0.8,4.4h5.7
		c0-1.5,0.3-2.7,1-3.6c0.7-0.9,1.7-1.4,3.2-1.4c1.2,0,2.2,0.4,2.9,1.1c0.7,0.7,1,1.7,1,2.9c0,1.8-0.7,3-2,3.6
		c-0.8,0.4-2.2,0.5-4.1,0.6v4.3c2,0,3.5,0.2,4.4,0.6c1.6,0.7,2.5,2,2.5,4.1c0,1.5-0.4,2.7-1.3,3.5c-0.9,0.8-1.9,1.2-3.1,1.2
		c-1.9,0-3.3-0.7-4-2.2c-0.4-0.8-0.6-1.8-0.6-3.1L30.5,68.3L30.5,68.3z M75.6,54.6c-0.2-2.4-1.2-4.4-2.9-5.9c-1.7-1.5-4-2.2-6.9-2.2
		c-2,0-3.7,0.5-5.1,1.4c-1.4,0.9-2.6,2.1-3.5,3.6c-1,1.7-1.7,3.9-2.1,6.6c-0.2,1.5-0.3,3.4-0.3,5.7c0,4,0.7,7.3,2.2,9.8
		c1.8,3.2,4.7,4.9,8.6,4.9c3.6,0,6.3-1.1,8-3.3c1.7-2.2,2.6-4.7,2.6-7.6c0-2.9-0.9-5.3-2.6-7.1c-1.8-1.9-4-2.8-6.7-2.8
		c-1.3,0-2.4,0.2-3.4,0.6c-1,0.4-1.9,1.1-2.6,2c0.2-2.4,0.5-4.2,0.9-5.4c0.8-2.2,2.2-3.3,4.2-3.3c1.3,0,2.3,0.5,3,1.4
		c0.4,0.6,0.6,1.1,0.6,1.6L75.6,54.6L75.6,54.6z M61.1,68c0-2.1,0.6-3.5,1.8-4.5c0.8-0.6,1.7-0.9,2.7-0.9c1.3,0,2.4,0.5,3.2,1.4
		c0.9,1,1.3,2.3,1.3,4.1c0,1.6-0.4,2.9-1.2,3.9c-0.8,1-1.8,1.5-3.2,1.5c-1.4,0-2.5-0.5-3.4-1.6C61.5,71,61.1,69.6,61.1,68z
		 M89.9,46.7c-3.9,0-6.7,1.4-8.3,4.2c-1.6,2.8-2.4,6.7-2.4,11.8s0.8,9,2.4,11.8c1.6,2.8,4.3,4.1,8.3,4.1c3.9,0,6.7-1.4,8.3-4.1
		s2.4-6.7,2.4-11.8s-0.8-9-2.4-11.8C96.6,48,93.8,46.7,89.9,46.7z M85.4,62.6c0-3.7,0.3-6.5,0.9-8.3c0.6-1.8,1.8-2.7,3.6-2.7
		c1.8,0,3,0.9,3.5,2.7c0.6,1.8,0.8,4.5,0.8,8.3c0,3.5-0.3,6.3-0.8,8.1c-0.6,1.9-1.7,2.8-3.5,2.8c-1.8,0-3-0.9-3.6-2.8
		C85.7,68.9,85.4,66.2,85.4,62.6z"/>
</g>
<g id="Layer_1_00000121266471617558716080000010643527668689571216_">
</g>
</svg>
