<?xml version="1.0" encoding="utf-8"?>
<!-- Generator: Adobe Illustrator 27.2.0, SVG Export Plug-In . SVG Version: 6.00 Build 0)  -->
<svg version="1.1" id="Layer_1" xmlns="http://www.w3.org/2000/svg" xmlns:xlink="http://www.w3.org/1999/xlink" x="0px" y="0px"
	 viewBox="0 0 128 128" style="enable-background:new 0 0 128 128;" xml:space="preserve">
<style type="text/css">
	.st0{fill:#FFFFFF;}
</style>
<path class="st0" d="M53.8,74.7V12.2H12.6v103.6h103.4V74.7C116.1,74.7,53.8,74.7,53.8,74.7z M112.1,111.8H16.6V16.2h33.1v10.6H29.3
	v4h20.5v11.6h-14v4h14v12.1h-14v4h14v12.1H29.3v4h20.9v19.6h4V78.7h11.9V92h4V78.7h10.8V92h4V78.7h11.6v19.6h4V78.7h11.6
	L112.1,111.8L112.1,111.8z"/>
<path class="st0" d="M32.6,88.1c-4.9,0-8.8,3.9-8.8,8.8s3.9,8.8,8.8,8.8s8.8-3.9,8.8-8.8S37.4,88.1,32.6,88.1z M32.6,101.6
	c-2.6,0-4.8-2.2-4.8-4.8s2.1-4.8,4.8-4.8s4.8,2.2,4.8,4.8S35.2,101.6,32.6,101.6z"/>
</svg>
